<svg version="1.2" xmlns="http://www.w3.org/2000/svg" viewBox="0 0 740 120" width="740" height="120">
	<title>Logo BidHub</title>
	<style>
		.s0 { fill: #e76113 } 
	</style>
	<path id="bidhub" class="s0" aria-label="bidhub"  d="m143.7 50q12.5-8 12.5-22.5 0-11-7.8-18.8-7.8-7.9-18.8-7.9h-101.7v98.4h101.7q11 0 18.8-7.8 7.8-8 7.8-18.9 0-14.6-12.5-22.5zm-107.5-40.8h93.4q7.5 0 12.8 5.4 5.4 5.4 5.4 12.9 0 7.5-5.5 12.9-5.2 5.4-12.7 5.4h-93.4zm93.4 81.6h-93.4v-36.6h93.4q7.5 0 12.7 5.4 5.5 5.4 5.5 12.9 0 7.5-5.5 12.9-5.2 5.4-12.7 5.4zm38.3-84.9v90q0 4 4 4 4.2 0 4.2-4v-90q0-4.2-4.2-4.2-4 0-4 4.2zm117.2-2.2q-8.1-2.9-16.3-2.9h-79.2v98.4h79.2q8.2 0 16.3-2.9 14.7-5.1 23.7-17.8 9.2-12.9 9.2-28.5 0-15.6-9.2-28.4-9-12.9-23.7-18zm-2.7 84.9q-6.3 2.3-13.6 2.3h-70.8v-81.6h70.8q7.3 0 13.6 2.2 12.2 4.4 19.7 15 7.5 10.7 7.5 23.6 0 12.9-7.5 23.5-7.5 10.7-19.7 15zm170.1-86.1q-4.2 0-4.2 4.2v40.8h-111.6v-40.8q0-4.2-4.2-4.2-4.2 0-4.2 4.2v90q0 4.2 4.2 4.2 4.2 0 4.2-4.2v-40.8h111.6v40.8q0 4.2 4.2 4.2 4.2 0 4.2-4.2v-90q0-4.2-4.2-4.2zm16.8 3.5v58.2q0 21 21.9 30.9 16.5 7.5 42.3 7.5 26 0 42.5-7.5 21.7-9.9 21.7-30.9v-58.2q0-4.2-4.2-4.2-4.2 0-4.2 4.2v58.2q0 17.7-21.6 25.2-13.9 4.8-34.2 4.8-20.2 0-34.2-4.8-21.6-7.5-21.6-25.2v-58.2q0-4.2-4.2-4.2-4.2 0-4.2 4.2zm258.2 44.1q12.4-8 12.4-22.5 0-11-7.7-18.8-7.9-7.9-18.8-7.9h-101.7v98.4h101.7q10.9 0 18.8-7.8 7.7-8 7.7-18.9 0-14.6-12.4-22.5zm-107.6-40.8h93.5q7.5 0 12.8 5.4 5.3 5.4 5.3 12.9 0 7.5-5.3 12.9-5.3 5.4-12.8 5.4h-93.5zm93.5 81.6h-93.5v-36.6h93.5q7.5 0 12.8 5.4 5.3 5.4 5.3 12.9 0 7.5-5.3 12.9-5.3 5.4-12.8 5.4z"/>
</svg>